<?xml version="1.0" encoding="UTF-8" standalone="no"?>
<svg
   xmlns:dc="http://purl.org/dc/elements/1.1/"
   xmlns:cc="http://creativecommons.org/ns#"
   xmlns:rdf="http://www.w3.org/1999/02/22-rdf-syntax-ns#"
   xmlns:svg="http://www.w3.org/2000/svg"
   xmlns="http://www.w3.org/2000/svg"
   xmlns:sodipodi="http://sodipodi.sourceforge.net/DTD/sodipodi-0.dtd"
   xmlns:inkscape="http://www.inkscape.org/namespaces/inkscape"
   version="1.1"
   width="38.5"
   height="35.943195"
   id="svg2093"
   sodipodi:docname="Chess_qdt45.svg"
   inkscape:export-filename="C:\Users\Egil\Desktop\Sjakkbrett\Images\qb.png"
   inkscape:export-xdpi="248.39194"
   inkscape:export-ydpi="248.39194"
   inkscape:version="0.92.5 (2060ec1f9f, 2020-04-08)">
  <metadata
     id="metadata2099">
    <rdf:RDF>
      <cc:Work
         rdf:about="">
        <dc:format>image/svg+xml</dc:format>
        <dc:type
           rdf:resource="http://purl.org/dc/dcmitype/StillImage" />
        <dc:title></dc:title>
      </cc:Work>
    </rdf:RDF>
  </metadata>
  <defs
     id="defs2097" />
  <sodipodi:namedview
     pagecolor="#ffffff"
     bordercolor="#666666"
     borderopacity="1"
     objecttolerance="10"
     gridtolerance="10"
     guidetolerance="10"
     inkscape:pageopacity="0"
     inkscape:pageshadow="2"
     inkscape:window-width="1280"
     inkscape:window-height="1377"
     id="namedview2095"
     showgrid="false"
     fit-margin-top="0"
     fit-margin-left="0"
     fit-margin-right="0"
     fit-margin-bottom="0"
     inkscape:zoom="19.013316"
     inkscape:cx="17.800546"
     inkscape:cy="17.338308"
     inkscape:window-x="1272"
     inkscape:window-y="239"
     inkscape:window-maximized="0"
     inkscape:current-layer="svg2093" />
  <g
     style="fill:#000000;stroke:#000000;stroke-width:1.5;stroke-linecap:round;stroke-linejoin:round"
     id="g2091"
     transform="translate(-3.25,-5.25)">
    <path
       d="m 9,26 c 8.5,-1.5 21,-1.5 27,0 L 38.5,13.5 31,25 30.7,10.9 25.5,24.5 22.5,10 19.5,24.5 14.3,10.9 14,25 6.5,13.5 Z"
       style="fill:#000000;stroke-linecap:butt"
       id="path2061"
       inkscape:connector-curvature="0" />
    <path
       d="m 9,26 c 0,2 1.5,2 2.5,4 1,1.5 1,1 0.5,3.5 -1.5,1 -1,2.5 -1,2.5 -1.5,1.5 0,2.5 0,2.5 6.5,1 16.5,1 23,0 0,0 1.5,-1 0,-2.5 0,0 0.5,-1.5 -1,-2.5 -0.5,-2.5 -0.5,-2 0.5,-3.5 1,-2 2.5,-2 2.5,-4 -8.5,-1.5 -18.5,-1.5 -27,0 z"
       id="path2063"
       inkscape:connector-curvature="0" />
    <path
       d="M 11.5,30 C 15,29 30,29 33.5,30"
       id="path2065"
       inkscape:connector-curvature="0" />
    <path
       d="m 12,33.5 c 6,-1 15,-1 21,0"
       id="path2067"
       inkscape:connector-curvature="0" />
    <circle
       cx="6"
       cy="12"
       r="2"
       id="circle2069" />
    <circle
       cx="14"
       cy="9"
       r="2"
       id="circle2071" />
    <circle
       cx="22.5"
       cy="8"
       r="2"
       id="circle2073" />
    <circle
       cx="31"
       cy="9"
       r="2"
       id="circle2075" />
    <circle
       cx="39"
       cy="12"
       r="2"
       id="circle2077" />
    <path
       d="m 11,38.5 a 35,35 1 0 0 23,0"
       style="fill:none;stroke:#000000;stroke-linecap:butt"
       id="path2079"
       inkscape:connector-curvature="0" />
    <g
       style="fill:none;stroke:#ffffff"
       id="g2089">
      <path
         d="m 11,29 a 35,35 1 0 1 23,0"
         id="path2081"
         inkscape:connector-curvature="0" />
      <path
         d="m 12.5,31.5 h 20"
         id="path2083"
         inkscape:connector-curvature="0" />
      <path
         d="m 11.5,34.5 a 35,35 1 0 0 22,0"
         id="path2085"
         inkscape:connector-curvature="0" />
      <path
         d="m 10.5,37.5 a 35,35 1 0 0 24,0"
         id="path2087"
         inkscape:connector-curvature="0" />
    </g>
  </g>
</svg>
